HIERARCHY
ROOT hip
{
  OFFSET 0 0 0
  CHANNELS 6 Xposition Yposition Zposition Zrotation Yrotation Xrotation
  JOINT abdomen
  {
    OFFSET 0 20.6881 -0.73152
    CHANNELS 3 Zrotation Xrotation Yrotation
    JOINT chest
    {
      OFFSET 0 11.7043 -0.48768
      CHANNELS 3 Zrotation Xrotation Yrotation
      JOINT neck
      {
        OFFSET 0 22.1894 -2.19456
        CHANNELS 3 Zrotation Xrotation Yrotation
        JOINT head
        {
          OFFSET -0.24384 7.07133 1.2192
          CHANNELS 3 Zrotation Xrotation Yrotation
          JOINT leftEye
          {
            OFFSET 4.14528 8.04674 8.04672
            CHANNELS 3 Zrotation Xrotation Yrotation
            End Site
            {
              OFFSET 1 0 0
            }
          }
          JOINT rightEye
          {
            OFFSET -3.6576 8.04674 8.04672
            CHANNELS 3 Zrotation Xrotation Yrotation
            End Site
            {
              OFFSET 1 0 0
            }
          }
        }
      }
      JOINT rCollar
      {
        OFFSET -2.68224 19.2634 -4.8768
        CHANNELS 3 Zrotation Xrotation Yrotation
        JOINT rShldr
        {
          OFFSET -8.77824 -1.95073 1.46304
          CHANNELS 3 Zrotation Xrotation Yrotation
          JOINT rForeArm
          {
            OFFSET -28.1742 -1.7115 0.48768
            CHANNELS 3 Zrotation Xrotation Yrotation
            JOINT rHand
            {
              OFFSET -22.5879 0.773209 7.07136
              CHANNELS 3 Zrotation Xrotation Yrotation
              JOINT rThumb1
              {
                OFFSET -1.2192 -0.487915 3.41376
                CHANNELS 3 Zrotation Xrotation Yrotation
                JOINT rThumb2
                {
                  OFFSET -3.37035 -0.52449 3.41376
                  CHANNELS 3 Zrotation Xrotation Yrotation
                  End Site
                  {
                    OFFSET -1.78271 -1.18214 1.43049
                  }
                }
              }
              JOINT rIndex1
              {
                OFFSET -7.75947 0.938293 5.60832
                CHANNELS 3 Zrotation Xrotation Yrotation
                JOINT rIndex2
                {
                  OFFSET -2.54057 -0.884171 1.56538
                  CHANNELS 3 Zrotation Xrotation Yrotation
                  End Site
                  {
                    OFFSET -1.62519 -0.234802 1.16502
                  }
                }
              }
              JOINT rMid1
              {
                OFFSET -8.24714 1.18213 3.41376
                CHANNELS 3 Zrotation Xrotation Yrotation
                JOINT rMid2
                {
                  OFFSET -3.10165 -0.590103 1.0647
                  CHANNELS 3 Zrotation Xrotation Yrotation
                  End Site
                  {
                    OFFSET -2.48547 -0.328903 0.83742
                  }
                }
              }
              JOINT rRing1
              {
                OFFSET -8.82822 0.546677 1.51678
                CHANNELS 3 Zrotation Xrotation Yrotation
                JOINT rRing2
                {
                  OFFSET -2.60934 -0.819778 -0.0198488
                  CHANNELS 3 Zrotation Xrotation Yrotation
                  End Site
                  {
                    OFFSET -2.33842 -0.294052 0.168128
                  }
                }
              }
              JOINT rPinky1
              {
                OFFSET -8.27202 -0.0477905 -0.4584
                CHANNELS 3 Zrotation Xrotation Yrotation
                JOINT rPinky2
                {
                  OFFSET -1.82734 -0.647385 -0.700984
                  CHANNELS 3 Zrotation Xrotation Yrotation
                  End Site
                  {
                    OFFSET -1.69225 -0.51767 -0.607171
                  }
                }
              }
            }
          }
        }
      }
      JOINT lCollar
      {
        OFFSET 2.68224 19.2634 -4.8768
        CHANNELS 3 Zrotation Xrotation Yrotation
        JOINT lShldr
        {
          OFFSET 8.77824 -1.95073 1.46304
          CHANNELS 3 Zrotation Xrotation Yrotation
          JOINT lForeArm
          {
            OFFSET 28.1742 -1.7115 0.48768
            CHANNELS 3 Zrotation Xrotation Yrotation
            JOINT lHand
            {
              OFFSET 22.5879 0.773209 7.07136
              CHANNELS 3 Zrotation Xrotation Yrotation
              JOINT lThumb1
              {
                OFFSET 1.2192 -0.487915 3.41376
                CHANNELS 3 Zrotation Xrotation Yrotation
                JOINT lThumb2
                {
                  OFFSET 3.37035 -0.52449 3.41376
                  CHANNELS 3 Zrotation Xrotation Yrotation
                  End Site
                  {
                    OFFSET 1.78271 -1.18214 1.43049
                  }
                }
              }
              JOINT lIndex1
              {
                OFFSET 7.75947 0.938293 5.60832
                CHANNELS 3 Zrotation Xrotation Yrotation
                JOINT lIndex2
                {
                  OFFSET 2.54057 -0.884171 1.56538
                  CHANNELS 3 Zrotation Xrotation Yrotation
                  End Site
                  {
                    OFFSET 1.62519 -0.234802 1.16502
                  }
                }
              }
              JOINT lMid1
              {
                OFFSET 8.24714 1.18213 3.41376
                CHANNELS 3 Zrotation Xrotation Yrotation
                JOINT lMid2
                {
                  OFFSET 3.10165 -0.590103 1.0647
                  CHANNELS 3 Zrotation Xrotation Yrotation
                  End Site
                  {
                    OFFSET 2.48547 -0.328903 0.83742
                  }
                }
              }
              JOINT lRing1
              {
                OFFSET 8.82822 0.546677 1.51678
                CHANNELS 3 Zrotation Xrotation Yrotation
                JOINT lRing2
                {
                  OFFSET 2.60934 -0.819778 -0.0198488
                  CHANNELS 3 Zrotation Xrotation Yrotation
                  End Site
                  {
                    OFFSET 2.33842 -0.294052 0.168128
                  }
                }
              }
              JOINT lPinky1
              {
                OFFSET 8.27202 -0.0477905 -0.4584
                CHANNELS 3 Zrotation Xrotation Yrotation
                JOINT lPinky2
                {
                  OFFSET 1.82734 -0.647385 -0.700984
                  CHANNELS 3 Zrotation Xrotation Yrotation
                  End Site
                  {
                    OFFSET 1.69225 -0.51767 -0.607171
                  }
                }
              }
            }
          }
        }
      }
    }
  }
  JOINT rButtock
  {
    OFFSET -8.77824 4.35084 1.2192
    CHANNELS 3 Zrotation Xrotation Yrotation
    JOINT rThigh
    {
      OFFSET 0 -1.70687 -2.19456
      CHANNELS 3 Zrotation Xrotation Yrotation
      JOINT rShin
      {
        OFFSET 0 -36.8199 0.73152
        CHANNELS 3 Zrotation Xrotation Yrotation
        JOINT rFoot
        {
          OFFSET 0.73152 -45.1104 -5.12064
          CHANNELS 3 Zrotation Xrotation Yrotation
          End Site
          {
            OFFSET -1.1221 -3.69964 12.103
          }
        }
      }
    }
  }
  JOINT lButtock
  {
    OFFSET 8.77824 4.35084 1.2192
    CHANNELS 3 Zrotation Xrotation Yrotation
    JOINT lThigh
    {
      OFFSET 0 -1.70687 -2.19456
      CHANNELS 3 Zrotation Xrotation Yrotation
      JOINT lShin
      {
        OFFSET 0 -36.8199 0.73152
        CHANNELS 3 Zrotation Xrotation Yrotation
        JOINT lFoot
        {
          OFFSET -0.73152 -45.1104 -5.12064
          CHANNELS 3 Zrotation Xrotation Yrotation
          End Site
          {
            OFFSET 1.1221 -3.69964 12.103
          }
        }
      }
    }
  }
}
MOTION
Frames:	5
Frame Time:	0.03333
18.526999999999997 66.4456 -37.5491 170.993887 10.220291 -176.425919 -16.42181 9.727947 -0.0 3.958392 -9.554054 0.214004 3.575471 16.656841 54.643511 -26.801555 -12.544579 -74.913232 0.004154 0.0 0.001337 0.004154 0.0 0.001337 1.699756 -70.103291 -16.501992 -46.810804 -74.74639 -118.706142 -65.57725 -28.24742 -156.075579 178.624097 -43.874345 147.889893 -9.136641 8.700794 2.078858 -133.921414 -35.424202 112.709294 -151.679946 -17.764865 121.236517 -157.034987 -6.741682 119.283731 -151.476874 17.842222 137.540087 -42.405229 58.298868 36.590695 -145.119909 0.185865 -179.185632 11.97278 31.797652 -5.398435 79.391709 88.181166 -39.211657 -153.324634 27.561189 -145.729216 -3.454824 -62.668791 13.252026 71.994788 -12.477974 147.311368 -3.526661 4.280701 45.028345 -146.694989 -44.062154 -134.371763 93.743678 37.963921 -53.548572 129.943056 -18.791389 -76.716126 -19.569069 -35.04017 5.985661 -20.639019 -8.228846 2.888848 -12.025825 -37.299779 3.220035 13.516217 36.37889 -10.678276 69.296138 72.947412 -87.016412 -5.136008 26.92983 0.790538 86.001283 -50.496015 84.370444 160.062846 55.902213 148.30416 0.004866 0.001113 0.002433 -55.523487 -63.793109 -146.775478 -88.214194 -12.498816 -28.589088 24.235904 41.678883 78.927527 0.006533 -3e-05 0.003267 -0.420229 5.354934 -171.946926 -6.806994 -50.134081 -52.542225 -153.16299 -61.406352 125.280614
20.572 66.7745 -39.0529 171.616016 10.176184 -175.586533 -15.477117 4.994111 -180.0 -3.536192 5.152248 178.772019 -2.968756 33.696633 -173.622875 4.029952 47.192084 156.343547 -2e-06 -0.0 0.004306 -0.0007 0.0 -0.000786 4.252404 -45.493704 -8.802935 -106.208839 -10.776017 165.612514 -179.438733 -11.657453 -108.749954 -9.802306 0.694245 -2.50743 -2.607807 2.554802 0.457746 27.28369 -41.952027 -15.117924 -138.492836 4.895633 114.86398 -8.742911 29.266542 -0.444958 -0.569499 1.648637 0.321896 155.599373 -71.297433 122.778266 -0.000399 -0.01854 -0.005773 -4.285108 -81.423393 -25.114736 -136.96045 -9.524001 -134.262411 -155.714459 38.69943 -146.277623 -3.191706 -25.838873 5.074759 -97.336772 13.243418 -4.934914 -3.590828 7.908188 -8.598331 8.319668 52.930297 -7.012271 178.927959 -16.453579 -89.420908 36.702092 -25.351469 -0.811868 77.668395 43.029272 -64.538074 -1.039029 8.048734 2.950898 160.671694 -6.668057 -143.245329 158.952005 7.625697 -141.20171 145.120567 0.309948 179.226027 156.281257 63.710646 -172.350022 161.702168 70.564275 151.02812 10.169068 -23.356103 11.469569 0.001251 -0.00019 0.001251 -56.468117 -61.025542 29.818542 83.363039 1.180592 0.401285 -125.905912 -38.304254 154.318225 0.0 -0.00019 0.000278 0.410406 5.987095 -177.158921 -5.91483 -43.162159 -111.095108 -138.425272 9.151997 14.920164
22.7378 67.26729999999999 -40.488099999999996 172.901462 11.263031 -175.094828 -14.310327 9.955142 1.925811 3.377022 -9.92069 -2.972813 7.118138 23.486642 96.116221 -37.792054 11.486861 -107.16278 -0.002998 0.0 -0.001706 0.002773 0.0 3e-06 -13.743942 42.431371 15.569943 93.655196 -29.545226 98.064309 -93.927835 -0.558103 76.607863 60.611427 -72.819373 44.790136 93.029012 -51.083623 40.500134 -150.872964 -0.209868 113.519886 -140.763101 1.38003 116.228192 -165.098051 -19.174518 119.035505 -15.424781 32.961169 11.29669 -163.210239 -4.950829 143.334278 -0.001718 -0.0186 -0.005203 -156.533551 -39.822843 176.617676 -169.010861 80.995414 -147.418081 -154.413749 31.093471 -146.071576 143.621022 38.233855 -148.081625 176.823344 72.268794 -97.782486 -111.069432 -85.362037 -67.841207 -134.545568 -49.772542 -129.931897 176.597791 -14.213413 -89.690412 -155.077556 -41.481445 -102.342772 132.540934 13.160516 -110.91515 -94.917849 -69.631048 -44.713501 10.977096 25.789531 -7.640823 163.233051 -4.943816 -143.349092 -0.004387 0.876233 -0.276769 -7.376607 26.542095 -4.021253 26.563807 -38.86088 25.606124 -3.966093 2.07771 -0.315021 -0.0 0.001858 0.000979 -47.278146 -61.036527 -43.886893 -23.559393 79.619133 -38.541163 87.105715 15.395785 1.460102 -179.981241 75.750623 -0.012835 -164.240423 82.255651 -0.0 18.061387 49.107663 114.561104 -134.398646 79.435145 33.79781
24.7922 67.7362 -41.7446 174.752695 12.612591 -174.96966 -9.63537 9.270556 -62.290472 7.904948 -2.909194 61.0013 -14.397102 25.385241 -83.407081 42.576865 9.072401 68.547044 0.000856 0.0 0.000595 0.000856 0.0 0.000595 -155.417241 -2.951525 161.71828 121.594433 42.846047 -127.286848 161.455098 -23.295742 59.186817 175.990708 -3.549396 144.625787 -7.757962 7.439428 1.681436 -161.341708 -66.770542 110.045402 73.419009 -73.571877 26.56241 -173.913789 -40.998273 110.557121 5.590763 -17.377276 -2.452978 -5.018177 21.309 4.418403 9.2e-05 0.063526 0.021667 -148.80347 43.187832 163.505802 -152.200702 37.329591 -147.583818 -26.019373 -40.24397 -26.846013 13.372713 41.838122 -15.176491 101.768507 -15.58809 -101.160554 2.904288 -39.697779 41.011832 -89.477057 -61.026759 -87.61548 169.562051 -7.243056 -89.929742 103.290981 12.115242 -44.092671 155.192891 -24.300001 -122.143207 55.835813 56.79862 -41.004099 0.057221 0.167962 -0.031911 163.325036 -4.924398 -143.368073 145.097754 -1.604288 178.622193 79.146771 87.683804 -92.59953 151.26622 33.678329 146.890841 137.892123 -12.922245 133.863718 -0.000437 2.9e-05 -0.000437 -37.761632 -60.648807 -41.627069 30.421392 82.196338 81.425879 19.430639 40.495722 -139.208759 -0.000437 2.9e-05 -0.000437 4.408224 0.523026 85.149183 56.439373 14.845719 178.756735 -6.612294 32.123277 121.856264
26.7171 68.1152 -43.0785 177.495615 13.729396 -174.547299 -7.76178 11.161111 0.0 2.364745 -9.377851 -1.3678 -13.579694 27.535991 -96.925432 42.633586 17.8892 80.3151 0.000112 0.0 0.00217 -0.0004 0.0 -0.000287 2.530411 -18.881245 -3.793199 -145.170126 -31.385351 129.593598 146.799725 24.131111 -84.444291 -27.857645 59.07504 13.691892 -93.743264 37.96402 53.548923 19.346172 -27.659344 23.148276 5.772555 -9.908968 -2.905873 173.719371 -43.430196 101.843692 -10.975269 25.789978 7.640112 -42.019926 58.552922 36.150411 -77.742787 72.904828 95.869735 -95.534318 82.974643 104.580787 -152.201561 37.329768 -147.582922 -147.755306 10.92968 -141.618353 158.515003 -30.702112 -167.038439 68.199728 -3.28673 54.761495 -6.106771 -8.571866 37.469164 -137.488368 -48.369936 -131.136768 172.671166 -10.349552 -89.931376 -59.119808 -68.924219 -45.458007 155.194303 -24.299591 -122.143227 -15.585376 -7.557232 10.627718 171.868852 -41.091353 -145.160697 148.678004 30.496356 -134.595511 145.123528 1.975562 179.74856 156.374404 63.990162 -172.27339 -26.973321 80.122536 -10.138581 160.729053 52.404717 148.443088 -0.002972 -0.00161 -0.002972 -30.854093 -61.425322 145.774139 -46.140185 -79.275574 -129.726824 -156.057285 -7.424695 138.600501 179.996963 75.749503 0.003133 -157.656427 64.447342 -156.891558 -66.828847 -53.37302 -25.874531 141.279148 12.154024 -162.639824
